<svg width="184" height="51" viewBox="0 0 184 51" fill="none" xmlns="http://www.w3.org/2000/svg">
<path d="M42.5937 7.4641C39.1037 3.89958 34.6576 1.47234 29.8176 0.4893C24.9775 -0.493743 19.9608 0.0115491 15.4018 1.94129C10.8428 3.87103 6.94618 7.13855 4.20471 11.3307C1.46324 15.5229 0 20.4514 0 25.4932C0 30.5349 1.46324 35.4634 4.20471 39.6556C6.94618 43.8478 10.8428 47.1153 15.4018 49.045C19.9608 50.9748 24.9775 51.48 29.8176 50.497C34.6576 49.514 39.1037 47.0867 42.5937 43.5222C47.2682 38.7375 49.8936 32.2534 49.8936 25.4932C49.8936 18.7329 47.2682 12.2488 42.5937 7.4641ZM8.56288 7.61502L8.34801 7.82084L8.56288 7.61502ZM8.05255 42.8224C3.57731 38.2278 1.06498 32.0095 1.06498 25.5275C1.06498 19.0454 3.57731 12.8272 8.05255 8.23246L8.40172 7.90316C20.3138 -3.69087 36.8458 13.6659 25.0948 25.7401C14.6197 36.4972 26.2095 51.8095 37.6516 46.4173C33.0429 49.3124 27.6123 50.5326 22.24 49.8801C16.8677 49.2277 11.8685 46.7407 8.05255 42.8224Z" fill="#0168B2"/>
<path d="M16.6074 27.318C21.3749 21.0339 20.9989 14.0089 14.7675 9.60449C17.8563 16.4649 11.1281 13.0072 7.26033 24.3268C4.38638 36.8813 16.4194 46.6779 24.9472 47.6521C15.9493 46.5133 11.8398 33.6158 16.6074 27.318ZM10.8595 35.962C10.211 34.5543 9.93552 32.9974 10.0604 31.4469C10.1853 29.8963 10.7063 28.4063 11.5713 27.1259C11.0852 30.1005 11.3345 33.1521 12.2965 36.0032C13.1257 38.1899 14.2465 40.2491 15.627 42.1227C13.5631 40.5041 11.9249 38.3872 10.8595 35.962Z" fill="#0168B2"/>
<path d="M60.1732 22.6118H57.4872V9.60449H66.6463V12.0331H60.1732V22.6118Z" fill="#0168B2"/>
<path d="M71.078 22.8725C70.4176 22.9153 69.7572 22.788 69.1576 22.502V20.1557C69.6133 20.397 70.1218 20.515 70.6348 20.4988C71.0843 20.5228 71.5288 20.3924 71.8972 20.1283C72.3172 19.7487 72.6517 19.2806 72.8776 18.7562L68.0698 9.60449H70.9571L74.1668 15.9846L76.9736 9.60449H79.7536L75.0666 19.7578C74.793 20.6312 74.264 21.398 73.5509 21.9549C72.8377 22.5117 71.9747 22.832 71.078 22.8725Z" fill="#0168B2"/>
<path d="M86.764 22.6118H81.2847V9.60449H90.4974V12.0331H83.9035V14.1186H86.764C88.0364 14.0446 89.289 14.4663 90.2691 15.2986C90.7006 15.6783 91.0448 16.1506 91.2769 16.6819C91.5091 17.2132 91.6235 17.7903 91.6121 18.372C91.6226 18.9536 91.5077 19.5304 91.2756 20.0616C91.0435 20.5927 90.6999 21.0652 90.2691 21.4455C89.2844 22.268 88.0339 22.6841 86.764 22.6118ZM83.9035 16.3414V20.2655H86.5894C87.2159 20.3117 87.8384 20.132 88.3487 19.7578C88.5575 19.5862 88.7227 19.3656 88.8303 19.1148C88.9378 18.864 88.9845 18.5904 88.9664 18.3172C88.9813 18.0404 88.9332 17.7638 88.826 17.5091C88.7189 17.2544 88.5555 17.0285 88.3487 16.849C87.8384 16.4749 87.2159 16.2952 86.5894 16.3414H83.9035Z" fill="#0168B2"/>
<path d="M96.3527 22.6118H93.7474V9.60449H96.3527V14.7223L101.04 9.60449H104.223L98.8507 15.5593L105.163 22.5706H101.819L96.3527 16.5884V22.6118Z" fill="#0168B2"/>
<path d="M108.775 22.6118H106.546V9.60449H109.151V18.0565L115.302 9.60449H117.545V22.5706H114.953V14.1186L108.775 22.6118Z" fill="#0168B2"/>
<path d="M122.97 22.6118H120.365V9.60449H122.97V14.4616H128.705V9.60449H131.297V22.5706H128.705V16.9314H122.97V22.6118Z" fill="#0168B2"/>
<path d="M140.536 22.8725C138.722 22.9242 136.961 22.244 135.634 20.9791C134.995 20.3568 134.491 19.6039 134.156 18.7694C133.82 17.9348 133.66 17.0374 133.687 16.1357C133.659 15.2317 133.818 14.3319 134.154 13.495C134.49 12.6581 134.994 11.9029 135.634 11.2785C136.967 10.0055 138.74 9.32457 140.563 9.38506C141.732 9.3692 142.886 9.6522 143.921 10.2083V12.9525C142.935 12.2815 141.774 11.9322 140.59 11.9508C139.463 11.9227 138.372 12.3519 137.555 13.1445C137.162 13.5414 136.853 14.0166 136.647 14.5406C136.442 15.0646 136.344 15.6262 136.36 16.1905C136.347 16.7601 136.45 17.3262 136.663 17.8529C136.876 18.3796 137.193 18.8554 137.595 19.2503C138.011 19.6455 138.499 19.9531 139.031 20.1555C139.564 20.358 140.13 20.4514 140.697 20.4303C141.95 20.4813 143.18 20.0833 144.176 19.3052V22.0493C143.06 22.6602 141.8 22.945 140.536 22.8725Z" fill="#0168B2"/>
<path d="M148.984 22.6118H146.378V9.60449H148.984V14.7223L153.671 9.60449H156.853L151.482 15.5593L157.793 22.5706H154.436L148.97 16.5884L148.984 22.6118Z" fill="#0168B2"/>
<path d="M161.366 22.6118H159.177V9.60449H161.782V18.0565L167.933 9.60449H170.176V22.5706H167.584V14.1186L161.366 22.6118Z" fill="#0168B2"/>
<path d="M175.185 22.6117H172.996V9.60445H175.601V18.0564L181.752 9.60445H183.981V22.5706H181.39V14.1186L175.185 22.6117ZM175.185 5.77637H177.105C177.099 5.95733 177.128 6.13779 177.19 6.30735C177.252 6.4769 177.347 6.63219 177.468 6.76426C177.754 7.00395 178.112 7.13496 178.482 7.13496C178.852 7.13496 179.21 7.00395 179.496 6.76426C179.624 6.63557 179.726 6.48181 179.796 6.3121C179.865 6.1424 179.9 5.96021 179.899 5.77637H181.819C181.829 6.20641 181.751 6.63378 181.589 7.03085C181.427 7.42792 181.185 7.78584 180.879 8.08145C180.208 8.64089 179.368 8.94643 178.502 8.94643C177.636 8.94643 176.796 8.64089 176.125 8.08145C175.815 7.78868 175.569 7.43161 175.405 7.03409C175.24 6.63658 175.161 6.20778 175.172 5.77637H175.185Z" fill="#0168B2"/>
<path d="M60.1327 40.6544C59.6258 40.6753 59.1197 40.5961 58.6421 40.4212V39.2275C59.0699 39.3963 59.5266 39.4756 59.985 39.4607C60.2688 39.4659 60.5495 39.3999 60.8024 39.2683C61.0553 39.1367 61.2727 38.9436 61.4354 38.7061C61.6107 38.4768 61.7679 38.2336 61.9055 37.9789C61.986 37.8417 62.1472 37.5261 62.3889 37.0459L57.608 28.3469H58.9509L62.9798 35.7287L66.3104 28.3469H67.6534L63.2887 37.9514C62.9312 38.7395 62.414 39.441 61.7712 40.0096C61.3194 40.42 60.7373 40.6491 60.1327 40.6544Z" fill="#0168B2"/>
<path d="M71.0915 40.4486H69.8291V28.3469H71.0781V33.3824H78.1152V28.3469H79.3776V40.4486H78.1152V34.535H71.0915V40.4486Z" fill="#0168B2"/>
<path d="M83.8092 40.4486H82.7617V28.3469H83.9972V38.3082L91.3164 28.3469H92.4177V40.4486H91.1821V30.4599L83.8092 40.4486Z" fill="#0168B2"/>
<path d="M101.254 40.4488H95.6006V28.3471H100.717C101.613 28.2929 102.497 28.576 103.202 29.1429C103.506 29.4033 103.746 29.7321 103.905 30.1035C104.063 30.4749 104.135 30.8788 104.115 31.2834C104.13 31.8508 103.991 32.4114 103.712 32.9024C103.442 33.3418 103.035 33.6753 102.557 33.8492C103.293 33.9415 103.967 34.3198 104.437 34.9057C104.914 35.511 105.166 36.2692 105.149 37.0461C105.166 37.5096 105.081 37.971 104.9 38.3962C104.718 38.8214 104.446 39.1994 104.102 39.5021C103.295 40.1584 102.284 40.4946 101.254 40.4488ZM96.863 29.4722V33.4238H100.529C101.149 33.4651 101.764 33.291 102.275 32.9299C102.472 32.7625 102.629 32.5525 102.736 32.3151C102.843 32.0778 102.896 31.819 102.893 31.5578C102.911 31.2786 102.864 30.999 102.757 30.7416C102.65 30.4842 102.485 30.2561 102.275 30.076C101.773 29.6935 101.154 29.5084 100.529 29.5546L96.863 29.4722ZM96.863 34.5489V39.2551H101.04C101.77 39.3006 102.493 39.082 103.081 38.6377C103.324 38.4201 103.516 38.149 103.641 37.8448C103.767 37.5406 103.823 37.2112 103.806 36.8814C103.822 36.5579 103.765 36.235 103.639 35.9376C103.513 35.6402 103.322 35.3763 103.081 35.1664C102.493 34.7221 101.77 34.5035 101.04 34.5489H96.863Z" fill="#0168B2"/>
<path d="M115.866 40.4486H107.432V28.3469H115.49V29.5132H108.775V33.3824H114.416V34.535H108.775V39.2961H115.906L115.866 40.4486Z" fill="#0168B2"/>
<path d="M119.519 40.4487H118.31V28.347H123.293C124.295 28.2907 125.281 28.6186 126.059 29.2663C126.397 29.5702 126.663 29.9471 126.84 30.3696C127.016 30.7921 127.098 31.2496 127.08 31.7086C127.1 32.1739 127.018 32.6378 126.842 33.0672C126.665 33.4966 126.398 33.8807 126.059 34.1921C125.281 34.8398 124.295 35.1676 123.293 35.1114H119.519V40.4487ZM119.519 29.4721V33.9177H123.158C123.852 33.9651 124.538 33.7556 125.092 33.3277C125.327 33.1319 125.513 32.8816 125.635 32.5976C125.756 32.3136 125.81 32.0042 125.791 31.6949C125.808 31.3851 125.755 31.0754 125.637 30.7898C125.518 30.5042 125.336 30.2505 125.106 30.0484C124.542 29.6298 123.854 29.4259 123.158 29.4721H119.519Z" fill="#0168B2"/>
<path d="M135.151 40.6546C134.342 40.6817 133.536 40.538 132.784 40.2325C132.032 39.9269 131.35 39.4661 130.78 38.8789C130.211 38.2916 129.766 37.5905 129.473 36.8195C129.181 36.0485 129.047 35.2241 129.081 34.3979C129.056 33.5722 129.195 32.7499 129.49 31.981C129.786 31.212 130.231 30.5125 130.8 29.925C131.367 29.3394 132.046 28.879 132.794 28.5722C133.543 28.2654 134.345 28.1187 135.151 28.1413C136.319 28.1083 137.472 28.4229 138.468 29.0468V30.4189C137.49 29.7504 136.341 29.3924 135.164 29.3898C134.526 29.3766 133.892 29.499 133.303 29.7494C132.713 29.9998 132.181 30.3726 131.74 30.8442C130.842 31.8274 130.343 33.1219 130.343 34.4665C130.343 35.8111 130.842 37.1056 131.74 38.0888C132.194 38.5481 132.737 38.9069 133.333 39.143C133.929 39.379 134.566 39.4872 135.205 39.4609C136.481 39.4983 137.728 39.0703 138.723 38.2534V39.6255C137.67 40.349 136.419 40.7095 135.151 40.6546Z" fill="#0168B2"/>
<path d="M142.349 40.4486H141.302V28.3469H142.537V38.3082L149.897 28.3469H150.998V40.4486H149.762V30.4599L142.349 40.4486Z" fill="#0168B2"/>
<path d="M158.532 40.4488H157.283V29.4722H153.254V28.3059H162.655V29.4722H158.519L158.532 40.4488Z" fill="#0168B2"/>
<path d="M173.049 40.4486H164.683V28.3469H172.741V29.5132H165.878V33.3824H171.518V34.535H165.878V39.2961H172.996L173.049 40.4486Z" fill="#0168B2"/>
<path d="M179.845 40.4488H178.609V29.4722H174.581V28.3059H183.981V29.4722H179.845V40.4488Z" fill="#0168B2"/>
</svg>
